<svg width="40" height="40" viewBox="0 0 40 40" fill="none" xmlns="http://www.w3.org/2000/svg">
<rect width="40" height="40" rx="20" fill="#373C43"/>
<path d="M15.5988 13.2438C15.6809 13.1477 15.7829 13.0706 15.8977 13.0177C16.0125 12.9649 16.1374 12.9375 16.2638 12.9375H23.7362C23.8626 12.9375 23.9875 12.9649 24.1023 13.0177C24.2171 13.0706 24.3191 13.1477 24.4012 13.2438L26.6841 15.9072C26.888 16.1451 27 16.448 27 16.7613V16.9844C27 17.4175 26.8648 17.8398 26.6131 18.1922C26.3614 18.5447 26.0059 18.8097 25.5962 18.9503C25.1865 19.0908 24.7432 19.0998 24.3282 18.9761C23.9131 18.8524 23.5471 18.602 23.2812 18.2601C23.0871 18.5102 22.8384 18.7125 22.554 18.8516C22.2696 18.9906 21.9572 19.0628 21.6406 19.0625C21.3241 19.0629 21.0116 18.9907 20.7272 18.8516C20.4428 18.7126 20.1941 18.5102 20 18.2601C19.8059 18.5102 19.5572 18.7126 19.2728 18.8516C18.9884 18.9907 18.6759 19.0629 18.3594 19.0625C18.0428 19.0629 17.7304 18.9907 17.446 18.8516C17.1616 18.7126 16.9128 18.5102 16.7188 18.2601C16.4529 18.602 16.0869 18.8524 15.6718 18.9761C15.2568 19.0998 14.8135 19.0908 14.4038 18.9503C13.9941 18.8097 13.6386 18.5447 13.3869 18.1922C13.1352 17.8398 13 17.4175 13 16.9844V16.7613C13 16.448 13.112 16.1451 13.3159 15.9072L15.5996 13.2429L15.5988 13.2438ZM17.1562 16.9844C17.1562 17.3035 17.283 17.6095 17.5086 17.8351C17.7343 18.0607 18.0403 18.1875 18.3594 18.1875C18.6785 18.1875 18.9845 18.0607 19.2101 17.8351C19.4357 17.6095 19.5625 17.3035 19.5625 16.9844C19.5625 16.8683 19.6086 16.7571 19.6906 16.675C19.7727 16.593 19.884 16.5469 20 16.5469C20.116 16.5469 20.2273 16.593 20.3094 16.675C20.3914 16.7571 20.4375 16.8683 20.4375 16.9844C20.4375 17.3035 20.5643 17.6095 20.7899 17.8351C21.0155 18.0607 21.3215 18.1875 21.6406 18.1875C21.9597 18.1875 22.2657 18.0607 22.4914 17.8351C22.717 17.6095 22.8438 17.3035 22.8438 16.9844C22.8438 16.8683 22.8898 16.7571 22.9719 16.675C23.0539 16.593 23.1652 16.5469 23.2812 16.5469C23.3973 16.5469 23.5086 16.593 23.5906 16.675C23.6727 16.7571 23.7188 16.8683 23.7188 16.9844C23.7188 17.3035 23.8455 17.6095 24.0711 17.8351C24.2968 18.0607 24.6028 18.1875 24.9219 18.1875C25.241 18.1875 25.547 18.0607 25.7726 17.8351C25.9982 17.6095 26.125 17.3035 26.125 16.9844V16.7613C26.125 16.657 26.0878 16.5561 26.02 16.4769L23.7362 13.8125H16.2638L13.98 16.4769C13.9122 16.5561 13.875 16.657 13.875 16.7613V16.9844C13.875 17.3035 14.0018 17.6095 14.2274 17.8351C14.453 18.0607 14.759 18.1875 15.0781 18.1875C15.3972 18.1875 15.7032 18.0607 15.9289 17.8351C16.1545 17.6095 16.2812 17.3035 16.2812 16.9844C16.2812 16.8683 16.3273 16.7571 16.4094 16.675C16.4914 16.593 16.6027 16.5469 16.7188 16.5469C16.8348 16.5469 16.9461 16.593 17.0281 16.675C17.1102 16.7571 17.1562 16.8683 17.1562 16.9844ZM14.3125 19.5C14.4285 19.5 14.5398 19.5461 14.6219 19.6281C14.7039 19.7102 14.75 19.8215 14.75 19.9375V25.1875H15.625V20.8125C15.625 20.5804 15.7172 20.3579 15.8813 20.1938C16.0454 20.0297 16.2679 19.9375 16.5 19.9375H19.125C19.3571 19.9375 19.5796 20.0297 19.7437 20.1938C19.9078 20.3579 20 20.5804 20 20.8125V25.1875H25.25V19.9375C25.25 19.8215 25.2961 19.7102 25.3781 19.6281C25.4602 19.5461 25.5715 19.5 25.6875 19.5C25.8035 19.5 25.9148 19.5461 25.9969 19.6281C26.0789 19.7102 26.125 19.8215 26.125 19.9375V25.1875H26.5625C26.6785 25.1875 26.7898 25.2336 26.8719 25.3156C26.9539 25.3977 27 25.509 27 25.625C27 25.741 26.9539 25.8523 26.8719 25.9344C26.7898 26.0164 26.6785 26.0625 26.5625 26.0625H13.4375C13.3215 26.0625 13.2102 26.0164 13.1281 25.9344C13.0461 25.8523 13 25.741 13 25.625C13 25.509 13.0461 25.3977 13.1281 25.3156C13.2102 25.2336 13.3215 25.1875 13.4375 25.1875H13.875V19.9375C13.875 19.8215 13.9211 19.7102 14.0031 19.6281C14.0852 19.5461 14.1965 19.5 14.3125 19.5ZM16.5 25.1875H19.125V20.8125H16.5V25.1875ZM20.875 20.8125C20.875 20.5804 20.9672 20.3579 21.1313 20.1938C21.2954 20.0297 21.5179 19.9375 21.75 19.9375H23.5C23.7321 19.9375 23.9546 20.0297 24.1187 20.1938C24.2828 20.3579 24.375 20.5804 24.375 20.8125V23.4375C24.375 23.6696 24.2828 23.8921 24.1187 24.0562C23.9546 24.2203 23.7321 24.3125 23.5 24.3125H21.75C21.5179 24.3125 21.2954 24.2203 21.1313 24.0562C20.9672 23.8921 20.875 23.6696 20.875 23.4375V20.8125ZM23.5 20.8125H21.75V23.4375H23.5V20.8125Z" fill="#E8AB64"/>
</svg>
