<svg width="40" height="40" viewBox="0 0 40 40" fill="none" xmlns="http://www.w3.org/2000/svg">
<rect width="40" height="40" rx="20" fill="#E8AB64"/>
<path fill-rule="evenodd" clip-rule="evenodd" d="M22.6172 20.9771L22.8953 21.0425C23.2531 21.1261 23.6357 21.2155 24.0098 21.3197C24.5547 21.4714 25.0202 21.6386 25.3056 21.8265C25.9484 22.2484 26.2222 22.6766 26.2222 23.0833V25.2222H21.1317L22.6172 20.9771ZM20.3072 25.2222L21.9581 20.5066L21.9686 20.486C22.0868 20.2448 22.3559 20.1134 22.6199 20.1776C22.7642 20.2126 22.9086 20.2469 23.0532 20.2806C23.4179 20.3658 23.8282 20.4618 24.2183 20.5703C24.7678 20.7236 25.3371 20.9165 25.7326 21.1762C26.461 21.6546 27 22.2873 27 23.0833V26H13V23.0833C13 22.2873 13.5394 21.6542 14.2678 21.1762C14.6629 20.9165 15.2322 20.7236 15.7817 20.5703C16.1714 20.4618 16.5821 20.3658 16.9468 20.2806C17.1012 20.2445 17.2474 20.2102 17.3801 20.178C17.5074 20.1475 17.6414 20.1613 17.7598 20.2173C17.8783 20.2732 17.9741 20.3678 18.0314 20.4856L18.0396 20.5023L19.8304 25.2222H20.3076H20.3072ZM18.9986 25.2222L17.3874 20.9756C17.2957 20.9977 17.2008 21.0199 17.1047 21.0425C16.7469 21.1261 16.3643 21.2155 15.9902 21.3197C15.4449 21.4714 14.9798 21.6386 14.6944 21.8265C14.0516 22.2484 13.7778 22.6766 13.7778 23.0833V25.2222H18.9986Z" fill="#1E285F"/>
<path d="M18.9539 21.0387C18.9396 20.9813 18.9386 20.9215 18.9509 20.8637C18.9631 20.806 18.9884 20.7517 19.0248 20.7052C19.0611 20.6586 19.1076 20.621 19.1607 20.5951C19.2138 20.5692 19.2721 20.5557 19.3312 20.5557H20.6689C20.728 20.5557 20.7863 20.5692 20.8394 20.5951C20.8925 20.621 20.939 20.6586 20.9753 20.7052C21.0117 20.7517 21.037 20.806 21.0492 20.8637C21.0615 20.9215 21.0605 20.9813 21.0462 21.0387L20.8517 21.8164C20.8307 21.9006 20.7822 21.9753 20.7138 22.0288C20.6455 22.0822 20.5612 22.1112 20.4745 22.1112H19.5256C19.4389 22.1112 19.3546 22.0822 19.2863 22.0288C19.2179 21.9753 19.1694 21.9006 19.1484 21.8164L18.9539 21.0387Z" fill="#1E285F"/>
<path d="M19.2217 23.6666L19.6106 20.9443H20.3883L20.7772 23.6666V25.611H19.2217V23.6666Z" fill="#1E285F"/>
<path fill-rule="evenodd" clip-rule="evenodd" d="M20.0002 19C21.7191 19 23.1113 17.6078 23.1113 15.8889C23.1113 14.17 21.7191 12.7778 20.0002 12.7778C18.2813 12.7778 16.8891 14.17 16.8891 15.8889C16.8891 17.6078 18.2813 19 20.0002 19ZM23.8891 15.8889C23.8891 18.0375 22.1488 19.7778 20.0002 19.7778C17.8516 19.7778 16.1113 18.0375 16.1113 15.8889C16.1113 13.7403 17.8516 12 20.0002 12C22.1488 12 23.8891 13.7403 23.8891 15.8889Z" fill="#1E285F"/>
</svg>
