<svg width="40" height="40" viewBox="0 0 40 40" fill="none" xmlns="http://www.w3.org/2000/svg">
<rect width="40" height="40" rx="20" fill="#E8AB64"/>
<path d="M20.0001 12.5C19.145 12.4947 18.2974 12.6592 17.5064 12.984C16.7154 13.3087 15.9967 13.7873 15.3921 14.392C14.7874 14.9966 14.3089 15.7153 13.9841 16.5063C13.6593 17.2973 13.4948 18.1449 13.5001 19V19.5C13.5001 21.2239 14.1849 22.8772 15.4039 24.0962C16.6229 25.3152 18.2762 26 20.0001 26H23.5001V25H20.0001C18.5414 25 17.1425 24.4205 16.111 23.3891C15.0796 22.3576 14.5001 20.9587 14.5001 19.5V19C14.4961 18.2766 14.6357 17.5596 14.9107 16.8905C15.1857 16.2214 15.5907 15.6135 16.1022 15.102C16.6137 14.5905 17.2216 14.1855 17.8907 13.9105C18.5598 13.6356 19.2767 13.496 20.0001 13.5C20.7292 13.4749 21.4556 13.6 22.1342 13.8675C22.8129 14.135 23.4293 14.5392 23.9451 15.055C24.4609 15.5708 24.8651 16.1872 25.1326 16.8659C25.4002 17.5445 25.5252 18.2709 25.5001 19C25.5001 20.795 24.8001 21.5 23.6701 21.5C22.8801 21.5 22.5001 20.855 22.5001 20V16H21.5001V16.97C21.3258 16.6631 21.0702 16.4101 20.7615 16.239C20.4527 16.0679 20.1028 15.9852 19.7501 16C19.0252 15.9973 18.3287 16.2821 17.8132 16.7919C17.2978 17.3017 17.0054 17.995 17.0001 18.72V19.78C17.0054 20.5049 17.2978 21.1983 17.8132 21.7081C18.3287 22.2179 19.0252 22.5027 19.7501 22.5C20.1671 22.5122 20.5785 22.4023 20.9339 22.1838C21.2892 21.9652 21.5729 21.6476 21.7501 21.27C21.9276 21.6379 22.2051 21.9484 22.5509 22.1659C22.8966 22.3835 23.2966 22.4992 23.7051 22.5C25.2401 22.5 26.5001 21.5 26.5001 19C26.5192 18.1412 26.3642 17.2874 26.0443 16.4901C25.7244 15.6928 25.2463 14.9686 24.6389 14.3612C24.0315 13.7538 23.3073 13.2757 22.51 12.9558C21.7128 12.6359 20.859 12.4809 20.0001 12.5ZM21.5001 19.78C21.5001 20.2441 21.3158 20.6892 20.9876 21.0174C20.6594 21.3456 20.2143 21.53 19.7501 21.53C19.286 21.53 18.8409 21.3456 18.5127 21.0174C18.1845 20.6892 18.0001 20.2441 18.0001 19.78V18.72C18.0001 18.2559 18.1845 17.8107 18.5127 17.4826C18.8409 17.1544 19.286 16.97 19.7501 16.97C20.2143 16.97 20.6594 17.1544 20.9876 17.4826C21.3158 17.8107 21.5001 18.2559 21.5001 18.72V19.78Z" fill="#1E285F"/>
</svg>
