<svg width="40" height="40" viewBox="0 0 40 40" fill="none" xmlns="http://www.w3.org/2000/svg">
<rect width="40" height="40" rx="20" fill="#373C43"/>
<g clip-path="url(#clip0_47_1655)">
<path d="M20.5001 22.0002H21.5002M25.0002 20.0001V19.0001C25.0002 18.7349 24.8949 18.4806 24.7073 18.293C24.5198 18.1055 24.2654 18.0001 24.0002 18.0001H14C13.7348 18.0001 13.4804 18.1055 13.2929 18.293C13.1054 18.4806 13 18.7349 13 19.0001V25.0002C13 25.2655 13.1054 25.5198 13.2929 25.7074C13.4804 25.8949 13.7348 26.0003 14 26.0003H24.0002C24.2654 26.0003 24.5198 25.8949 24.7073 25.7074C24.8949 25.5198 25.0002 25.2655 25.0002 25.0002V24.0002V20.0001ZM25.0002 20.0001H21.0001C20.4697 20.0001 19.961 20.2109 19.5859 20.5859C19.2108 20.961 19.0001 21.4697 19.0001 22.0002C19.0001 22.5306 19.2108 23.0393 19.5859 23.4144C19.961 23.7895 20.4697 24.0002 21.0001 24.0002H25.0002V20.0001ZM25.0002 20.0001C25.5307 20.0001 26.0394 20.2109 26.4145 20.5859C26.7895 20.961 27.0003 21.4697 27.0003 22.0002C27.0003 22.5306 26.7895 23.0393 26.4145 23.4144C26.0394 23.7895 25.5307 24.0002 25.0002 24.0002V20.0001ZM16.0001 18.0001V15.0001C16.0001 14.2044 16.3161 13.4413 16.8788 12.8787C17.4414 12.3161 18.2044 12 19.0001 12C19.7958 12 20.5589 12.3161 21.1215 12.8787C21.6841 13.4413 22.0002 14.2044 22.0002 15.0001V18.0001H16.0001ZM24.5002 22.0002H25.5002H24.5002ZM22.5002 22.0002H23.5002H22.5002Z" stroke="#E8AB64"/>
</g>
<defs>
<clipPath id="clip0_47_1655">
<rect width="16" height="16" fill="white" transform="translate(12 12)"/>
</clipPath>
</defs>
</svg>
