<svg width="40" height="40" viewBox="0 0 40 40" fill="none" xmlns="http://www.w3.org/2000/svg">
<rect width="40" height="40" rx="20" fill="#373C43"/>
<path d="M25 26H17.5C17.2349 25.9997 16.9807 25.8943 16.7932 25.7068C16.6057 25.5193 16.5003 25.2651 16.5 25V22H17.5V25H25V14H20.5V13H25C25.2651 13.0003 25.5193 13.1057 25.7068 13.2932C25.8943 13.4807 25.9997 13.7349 26 14V25C25.9997 25.2651 25.8943 25.5193 25.7068 25.7068C25.5193 25.8943 25.2651 25.9997 25 26Z" fill="#E8AB64"/>
<path d="M20.5 16H24V17H20.5V16Z" fill="#E8AB64"/>
<path d="M20 18.5H24V19.5H20V18.5Z" fill="#E8AB64"/>
<path d="M19.5 21H24V22H19.5V21Z" fill="#E8AB64"/>
<path d="M16.5 20.5C15.8372 20.4993 15.2017 20.2357 14.733 19.767C14.2643 19.2983 14.0007 18.6628 14 18V12.5H15V18C15 18.3978 15.158 18.7794 15.4393 19.0607C15.7206 19.342 16.1022 19.5 16.5 19.5C16.8978 19.5 17.2794 19.342 17.5607 19.0607C17.842 18.7794 18 18.3978 18 18V13.5C18 13.3674 17.9473 13.2402 17.8536 13.1464C17.7598 13.0527 17.6326 13 17.5 13C17.3674 13 17.2402 13.0527 17.1464 13.1464C17.0527 13.2402 17 13.3674 17 13.5V18.5H16V13.5C16 13.1022 16.158 12.7206 16.4393 12.4393C16.7206 12.158 17.1022 12 17.5 12C17.8978 12 18.2794 12.158 18.5607 12.4393C18.842 12.7206 19 13.1022 19 13.5V18C18.9993 18.6628 18.7357 19.2983 18.267 19.767C17.7983 20.2357 17.1628 20.4993 16.5 20.5Z" fill="#E8AB64"/>
</svg>
