<svg width="40" height="40" viewBox="0 0 40 40" fill="none" xmlns="http://www.w3.org/2000/svg">
<rect width="40" height="40" rx="20" fill="#E8AB64"/>
<path d="M20 20C20.9283 20 21.8185 19.6313 22.4749 18.9749C23.1313 18.3185 23.5 17.4283 23.5 16.5C23.5 15.5717 23.1313 14.6815 22.4749 14.0251C21.8185 13.3687 20.9283 13 20 13C19.0717 13 18.1815 13.3687 17.5251 14.0251C16.8687 14.6815 16.5 15.5717 16.5 16.5C16.5 17.4283 16.8687 18.3185 17.5251 18.9749C18.1815 19.6313 19.0717 20 20 20ZM22.3333 16.5C22.3333 17.1188 22.0875 17.7123 21.6499 18.1499C21.2123 18.5875 20.6188 18.8333 20 18.8333C19.3812 18.8333 18.7877 18.5875 18.3501 18.1499C17.9125 17.7123 17.6667 17.1188 17.6667 16.5C17.6667 15.8812 17.9125 15.2877 18.3501 14.8501C18.7877 14.4125 19.3812 14.1667 20 14.1667C20.6188 14.1667 21.2123 14.4125 21.6499 14.8501C22.0875 15.2877 22.3333 15.8812 22.3333 16.5ZM27 25.8333C27 27 25.8333 27 25.8333 27H14.1667C14.1667 27 13 27 13 25.8333C13 24.6667 14.1667 21.1667 20 21.1667C25.8333 21.1667 27 24.6667 27 25.8333ZM25.8333 25.8287C25.8322 25.5417 25.6537 24.6783 24.8627 23.8873C24.102 23.1267 22.6705 22.3333 20 22.3333C17.3283 22.3333 15.898 23.1267 15.1373 23.8873C14.3463 24.6783 14.169 25.5417 14.1667 25.8287H25.8333Z" fill="#1E285F"/>
</svg>
