<svg width="40" height="40" viewBox="0 0 40 40" fill="none" xmlns="http://www.w3.org/2000/svg">
<rect width="40" height="40" rx="20" fill="#373C43"/>
<g clip-path="url(#clip0_47_1575)">
<path d="M18.5 19.5C19.362 19.5 20.1886 19.1576 20.7981 18.5481C21.4076 17.9386 21.75 17.112 21.75 16.25C21.75 15.388 21.4076 14.5614 20.7981 13.9519C20.1886 13.3424 19.362 13 18.5 13C17.638 13 16.8114 13.3424 16.2019 13.9519C15.5924 14.5614 15.25 15.388 15.25 16.25C15.25 17.112 15.5924 17.9386 16.2019 18.5481C16.8114 19.1576 17.638 19.5 18.5 19.5ZM20.6667 16.25C20.6667 16.8246 20.4384 17.3757 20.0321 17.7821C19.6257 18.1884 19.0746 18.4167 18.5 18.4167C17.9254 18.4167 17.3743 18.1884 16.9679 17.7821C16.5616 17.3757 16.3333 16.8246 16.3333 16.25C16.3333 15.6754 16.5616 15.1243 16.9679 14.7179C17.3743 14.3116 17.9254 14.0833 18.5 14.0833C19.0746 14.0833 19.6257 14.3116 20.0321 14.7179C20.4384 15.1243 20.6667 15.6754 20.6667 16.25ZM25 24.9167C25 26 23.9167 26 23.9167 26H13.0833C13.0833 26 12 26 12 24.9167C12 23.8333 13.0833 20.5833 18.5 20.5833C23.9167 20.5833 25 23.8333 25 24.9167ZM23.9167 24.9123C23.9156 24.6458 23.7498 23.8442 23.0153 23.1097C22.309 22.4033 20.9798 21.6667 18.5 21.6667C16.0192 21.6667 14.691 22.4033 13.9847 23.1097C13.2502 23.8442 13.0855 24.6458 13.0833 24.9123H23.9167Z" fill="#E8AB64"/>
<path fill-rule="evenodd" clip-rule="evenodd" d="M27.8537 16.146C27.9002 16.1925 27.9372 16.2477 27.9624 16.3084C27.9876 16.3692 28.0005 16.4343 28.0005 16.5C28.0005 16.5658 27.9876 16.6309 27.9624 16.6917C27.9372 16.7524 27.9002 16.8076 27.8537 16.854L24.8537 19.854C24.8072 19.9006 24.752 19.9375 24.6913 19.9628C24.6305 19.988 24.5654 20.0009 24.4997 20.0009C24.4339 20.0009 24.3688 19.988 24.308 19.9628C24.2473 19.9375 24.1921 19.9006 24.1457 19.854L22.6457 18.354C22.5518 18.2602 22.499 18.1328 22.499 18C22.499 17.8673 22.5518 17.7399 22.6457 17.646C22.7395 17.5522 22.8669 17.4994 22.9997 17.4994C23.1324 17.4994 23.2598 17.5522 23.3537 17.646L24.4997 18.793L27.1457 16.146C27.1921 16.0995 27.2473 16.0625 27.308 16.0373C27.3688 16.0121 27.4339 15.9991 27.4997 15.9991C27.5654 15.9991 27.6305 16.0121 27.6913 16.0373C27.752 16.0625 27.8072 16.0995 27.8537 16.146Z" fill="#E8AB64"/>
</g>
<defs>
<clipPath id="clip0_47_1575">
<rect width="16" height="16" fill="white" transform="translate(12 12)"/>
</clipPath>
</defs>
</svg>
