<svg width="20" height="19" viewBox="0 0 20 19" fill="none" xmlns="http://www.w3.org/2000/svg">
<g clip-path="url(#clip0_9_358)">
<rect x="0.571411" width="19" height="19" rx="9.5" fill="#0F6CBD"/>
<rect x="0.571411" width="19" height="19" rx="9.5" fill="#0F6CBD"/>
<g clip-path="url(#clip1_9_358)">
<path d="M5.31184 6.04053H10.0692C11.34 6.04053 12.3702 7.07072 12.3702 8.34153C12.3702 9.61234 11.34 10.6425 10.0692 10.6425H6.81225C5.9836 10.6425 5.31184 9.97077 5.31184 9.14212V6.04053Z" stroke="white"/>
<path d="M7.77266 8.35767H12.53C13.8008 8.35767 14.831 9.38786 14.831 10.6587C14.831 11.9295 13.8008 12.9597 12.53 12.9597H10.3777C8.93898 12.9597 7.77266 11.7933 7.77266 10.3546V8.35767Z" stroke="white"/>
</g>
</g>
<defs>
<clipPath id="clip0_9_358">
<rect x="0.571411" width="19" height="19" rx="9.5" fill="white"/>
</clipPath>
<clipPath id="clip1_9_358">
<rect width="11" height="9" fill="white" transform="translate(4.57141 5)"/>
</clipPath>
</defs>
</svg>
