<svg xmlns="http://www.w3.org/2000/svg" width="24" height="24" viewBox="0 0 24 24" fill="none">
  <path d="M19.0501 22.219C19.0501 20.6632 17.807 18.4465 16.0726 17.9559M14.5838 22.219C14.5838 20.2456 12.5844 17.7527 10.1175 17.7527C7.65062 17.7527 5.6512 20.2456 5.6512 22.219" stroke="#373737" stroke-width="1.5" stroke-linecap="round" stroke-linejoin="round"/>
  <path d="M10.1174 15.1473C11.3507 15.1473 12.3506 14.1475 12.3506 12.9142C12.3506 11.6808 11.3507 10.681 10.1174 10.681C8.88407 10.681 7.88425 11.6808 7.88425 12.9142C7.88425 14.1475 8.88407 15.1473 10.1174 15.1473Z" stroke="#373737" stroke-width="1.5" stroke-linecap="round" stroke-linejoin="round"/>
  <path d="M14.5836 15.1473C15.1759 15.1473 15.7439 14.912 16.1627 14.4933C16.5815 14.0745 16.8168 13.5064 16.8168 12.9142C16.8168 12.3219 16.5815 11.7539 16.1627 11.3351C15.7439 10.9163 15.1759 10.681 14.5836 10.681" stroke="#373737" stroke-width="1.5" stroke-linecap="round" stroke-linejoin="round"/>
  <path d="M4.32019 16.7669V5.96405L13.6674 1.78101L20.381 6.6354V16.7669" stroke="#373737" stroke-width="1.5" stroke-linecap="round" stroke-linejoin="round"/>
  <path d="M13.5911 2.0433V7.8272" stroke="#373737" stroke-width="1.5" stroke-linecap="round" stroke-linejoin="round"/>
</svg>