<svg xmlns="http://www.w3.org/2000/svg" width="24" height="18" viewBox="0 0 24 18" fill="none">
  <path d="M19.7775 0.765438H4.2225C2.56565 0.765438 1.2225 2.10858 1.2225 3.76544V14.2346C1.2225 15.8914 2.56565 17.2346 4.2225 17.2346H8.45475H19.7775C21.4344 17.2346 22.7775 15.8914 22.7775 14.2346V3.76544C22.7775 2.10858 21.4344 0.765438 19.7775 0.765438Z" stroke="#373737" stroke-width="1.5"/>
  <path d="M1.90085 12.8977L22.4218 12.8977" stroke="#373737" stroke-width="1.5" stroke-linecap="round" stroke-linejoin="round"/>
  <path d="M7.02687 6.01901C7.76435 6.01901 8.3622 5.42116 8.3622 4.68368C8.3622 3.9462 7.76435 3.34835 7.02687 3.34835C6.28939 3.34835 5.69154 3.9462 5.69154 4.68368C5.69154 5.42116 6.28939 6.01901 7.02687 6.01901Z" stroke="#373737" stroke-width="1.5"/>
  <path d="M9.69753 9.53014C9.69753 10.3597 9.69753 11.0324 7.02687 11.0324C4.35622 11.0324 4.35622 10.3597 4.35622 9.53014C4.35622 8.70057 5.552 8.0279 7.02687 8.0279C8.50174 8.0279 9.69753 8.70057 9.69753 9.53014Z" stroke="#373737" stroke-width="1.5"/>
  <path d="M15.6456 4.72873H19.8382" stroke="#373737" stroke-width="1.5" stroke-linecap="round" stroke-linejoin="round"/>
</svg>