<svg xmlns="http://www.w3.org/2000/svg" width="24" height="24" viewBox="0 0 24 24" fill="none">
  <path d="M1.71983 3.70983V20.2902C1.71983 21.3947 2.61526 22.2902 3.71983 22.2902H20.2802C21.3847 22.2902 22.2802 21.3947 22.2802 20.2902V7.02455C22.2802 6.55893 22.1177 6.10789 21.8208 5.74922L20.2561 3.85901L18.8804 2.35833C18.5016 1.9451 17.9667 1.70982 17.4061 1.70982H3.71983C2.61526 1.70982 1.71983 2.60526 1.71983 3.70983Z" stroke="#A6A6A6" stroke-width="1.5"/>
  <path d="M14.2504 6.89466C14.2504 6.02856 13.1755 5.32729 11.8492 5.32729C10.5232 5.32729 9.44793 6.02896 9.44793 6.89466C9.44793 7.76036 10.1028 8.23794 11.8492 8.23794C13.5955 8.23794 14.4688 8.6857 14.4688 9.80571C14.4688 10.9249 13.296 11.3727 11.8492 11.3727C10.4023 11.3727 9.22949 10.671 9.22949 9.80531M12.0507 4.52124V5.21041M12.0507 12.1787V11.4896" stroke="#A6A6A6" stroke-width="1.5" stroke-linecap="round"/>
  <path d="M5.19676 15.0958L18.7705 15.0958" stroke="#A6A6A6" stroke-width="1.5" stroke-linecap="round" stroke-linejoin="round"/>
  <path d="M5.19676 18.2505H14.7442" stroke="#A6A6A6" stroke-width="1.5" stroke-linecap="round" stroke-linejoin="round"/>
</svg>