<svg width="16" height="16" viewBox="0 0 16 16" fill="none" xmlns="http://www.w3.org/2000/svg">
<g clip-path="url(#clip0_22_2836)">
<path d="M2.2857 6.28564V12.5714M6.09484 6.28564V12.5714M9.90513 6.28564V12.5714M13.7143 6.28564V12.5714M14.7543 6.28564H1.2457C0.605697 6.28564 0.331411 5.58849 0.834268 5.25707L7.58855 0.834209C7.71326 0.760851 7.8553 0.722168 7.99998 0.722168C8.14466 0.722168 8.28671 0.760851 8.41141 0.834209L15.1657 5.25707C15.6686 5.58849 15.3943 6.28564 14.7543 6.28564ZM14.8571 12.5714H1.14284C0.991287 12.5714 0.845942 12.6316 0.738779 12.7387C0.631615 12.8459 0.571411 12.9912 0.571411 13.1428V14.8571C0.571411 15.0086 0.631615 15.154 0.738779 15.2611C0.845942 15.3683 0.991287 15.4285 1.14284 15.4285H14.8571C15.0087 15.4285 15.154 15.3683 15.2612 15.2611C15.3684 15.154 15.4286 15.0086 15.4286 14.8571V13.1428C15.4286 12.9912 15.3684 12.8459 15.2612 12.7387C15.154 12.6316 15.0087 12.5714 14.8571 12.5714Z" stroke="white" stroke-linecap="round" stroke-linejoin="round"/>
</g>
<defs>
<clipPath id="clip0_22_2836">
<rect width="16" height="16" fill="white"/>
</clipPath>
</defs>
</svg>
