<svg width="16" height="16" viewBox="0 0 16 16" fill="none" xmlns="http://www.w3.org/2000/svg">
<g clip-path="url(#clip0_371_984)">
<path d="M2.28582 6.28564V12.5714M6.09496 6.28564V12.5714M9.90525 6.28564V12.5714M13.7144 6.28564V12.5714M14.7544 6.28564H1.24582C0.605819 6.28564 0.331533 5.58849 0.83439 5.25707L7.58868 0.834209C7.71338 0.760851 7.85543 0.722168 8.0001 0.722168C8.14478 0.722168 8.28683 0.760851 8.41153 0.834209L15.1658 5.25707C15.6687 5.58849 15.3944 6.28564 14.7544 6.28564ZM14.8572 12.5714H1.14296C0.99141 12.5714 0.846064 12.6316 0.738901 12.7387C0.631737 12.8459 0.571533 12.9912 0.571533 13.1428V14.8571C0.571533 15.0086 0.631737 15.154 0.738901 15.2611C0.846064 15.3683 0.99141 15.4285 1.14296 15.4285H14.8572C15.0088 15.4285 15.1541 15.3683 15.2613 15.2611C15.3685 15.154 15.4287 15.0086 15.4287 14.8571V13.1428C15.4287 12.9912 15.3685 12.8459 15.2613 12.7387C15.1541 12.6316 15.0088 12.5714 14.8572 12.5714Z" stroke="#373737" stroke-linecap="round" stroke-linejoin="round"/>
</g>
<defs>
<clipPath id="clip0_371_984">
<rect width="16" height="16" fill="white"/>
</clipPath>
</defs>
</svg>
