<svg xmlns="http://www.w3.org/2000/svg" width="24" height="24" viewBox="0 0 24 24" fill="none">
  <path d="M10.6388 9.99994C12.8479 9.99994 14.6388 8.20908 14.6388 5.99994C14.6388 3.7908 12.8479 1.99994 10.6388 1.99994C8.42967 1.99994 6.63881 3.7908 6.63881 5.99994C6.63881 8.20908 8.42967 9.99994 10.6388 9.99994Z" stroke="#A6A6A6" stroke-width="1.5"/>
  <path d="M18.6388 17.4999C18.6388 19.9849 18.6388 21.9999 10.6388 21.9999C2.63881 21.9999 2.63881 19.9849 2.63881 17.4999C2.63881 15.0149 6.22081 12.9999 10.6388 12.9999C11.793 12.9999 12.8901 13.1375 13.8812 13.385" stroke="#A6A6A6" stroke-width="1.5" stroke-linecap="round"/>
  <path d="M16.1761 13.789L17.8334 15.3635L21.3613 11.8356" stroke="#A6A6A6" stroke-width="1.5" stroke-linecap="round" stroke-linejoin="round"/>
</svg>