<svg width="21" height="20" viewBox="0 0 21 20" fill="none" xmlns="http://www.w3.org/2000/svg">
<path d="M17.8371 17.5L14.218 13.8808M14.218 13.8808C14.8371 13.2617 15.3281 12.5268 15.6632 11.7179C15.9982 10.9091 16.1707 10.0422 16.1707 9.16666C16.1707 8.29115 15.9982 7.42422 15.6632 6.61537C15.3281 5.80651 14.8371 5.07156 14.218 4.45249C13.5989 3.83342 12.864 3.34234 12.0551 3.0073C11.2462 2.67226 10.3793 2.49982 9.50381 2.49982C8.62831 2.49982 7.76138 2.67226 6.95252 3.0073C6.14367 3.34234 5.40872 3.83342 4.78965 4.45249C3.53937 5.70276 2.83698 7.3985 2.83698 9.16666C2.83698 10.9348 3.53937 12.6305 4.78965 13.8808C6.03992 15.1311 7.73566 15.8335 9.50381 15.8335C11.272 15.8335 12.9677 15.1311 14.218 13.8808Z" stroke="white" stroke-width="1.5" stroke-linecap="round" stroke-linejoin="round"/>
</svg>
