<svg width="21" height="20" viewBox="0 0 21 20" fill="none" xmlns="http://www.w3.org/2000/svg">
<path d="M10.3372 12.3413C11.6301 12.3413 12.6782 11.2932 12.6782 10.0003C12.6782 8.70735 11.6301 7.65924 10.3372 7.65924C9.04432 7.65924 7.99622 8.70735 7.99622 10.0003C7.99622 11.2932 9.04432 12.3413 10.3372 12.3413Z" stroke="white" stroke-width="1.5" stroke-linecap="round" stroke-linejoin="round"/>
<path d="M11.7145 2.31533C11.4281 2.19672 11.0644 2.19672 10.3372 2.19672C9.60988 2.19672 9.24624 2.19672 8.95986 2.31533C8.77038 2.39376 8.59821 2.50877 8.45321 2.65378C8.3082 2.79879 8.19319 2.97095 8.11475 3.16043C8.04296 3.33445 8.01409 3.53812 8.00317 3.83387C7.9983 4.04767 7.93918 4.25673 7.83134 4.44142C7.72351 4.6261 7.5705 4.78034 7.3867 4.88967C7.20012 4.99426 6.99001 5.04971 6.77611 5.05081C6.56221 5.0519 6.35155 4.9986 6.16391 4.89591C5.90171 4.75701 5.71209 4.68053 5.52403 4.65556C5.11382 4.60162 4.69898 4.71277 4.37069 4.96458C4.12566 5.1542 3.94306 5.46868 3.57942 6.09841C3.21579 6.72814 3.03319 7.04262 2.99339 7.35085C2.96657 7.55409 2.98006 7.76063 3.03308 7.95866C3.08611 8.15668 3.17762 8.34232 3.3024 8.50497C3.41789 8.6548 3.57942 8.78043 3.82991 8.93806C4.19901 9.16982 4.43624 9.56467 4.43624 10.0001C4.43624 10.4355 4.19901 10.8304 3.82991 11.0614C3.57942 11.2198 3.41711 11.3454 3.3024 11.4952C3.17762 11.6579 3.08611 11.8435 3.03308 12.0416C2.98006 12.2396 2.96657 12.4461 2.99339 12.6494C3.03397 12.9568 3.21579 13.2721 3.57864 13.9018C3.94306 14.5315 4.12488 14.846 4.37069 15.0356C4.53334 15.1604 4.71898 15.2519 4.91701 15.305C5.11504 15.358 5.32157 15.3715 5.52481 15.3446C5.71209 15.3197 5.90171 15.2432 6.16391 15.1043C6.35155 15.0016 6.56221 14.9483 6.77611 14.9494C6.99001 14.9505 7.20012 15.0059 7.3867 15.1105C7.7636 15.329 7.98756 15.7309 8.00317 16.1663C8.01409 16.4629 8.04218 16.6658 8.11475 16.8398C8.19319 17.0293 8.3082 17.2014 8.45321 17.3464C8.59821 17.4914 8.77038 17.6064 8.95986 17.6849C9.24624 17.8035 9.60988 17.8035 10.3372 17.8035C11.0644 17.8035 11.4281 17.8035 11.7145 17.6849C11.9039 17.6064 12.0761 17.4914 12.2211 17.3464C12.3661 17.2014 12.4811 17.0293 12.5596 16.8398C12.6314 16.6658 12.6602 16.4629 12.6712 16.1663C12.6868 15.7309 12.9107 15.3283 13.2876 15.1105C13.4742 15.0059 13.6843 14.9505 13.8982 14.9494C14.1121 14.9483 14.3228 15.0016 14.5104 15.1043C14.7726 15.2432 14.9622 15.3197 15.1495 15.3446C15.3527 15.3715 15.5593 15.358 15.7573 15.305C15.9553 15.2519 16.141 15.1604 16.3036 15.0356C16.5494 14.8468 16.7313 14.5315 17.0949 13.9018C17.4585 13.2721 17.6411 12.9576 17.6809 12.6494C17.7077 12.4461 17.6943 12.2396 17.6412 12.0416C17.5882 11.8435 17.4967 11.6579 17.3719 11.4952C17.2564 11.3454 17.0949 11.2198 16.8444 11.0621C16.6616 10.951 16.51 10.7953 16.404 10.6095C16.2979 10.4237 16.2408 10.214 16.2381 10.0001C16.2381 9.56467 16.4753 9.16982 16.8444 8.93884C17.0949 8.78043 17.2572 8.6548 17.3719 8.50497C17.4967 8.34232 17.5882 8.15668 17.6412 7.95866C17.6943 7.76063 17.7077 7.55409 17.6809 7.35085C17.6403 7.0434 17.4585 6.72814 17.0957 6.09841C16.7313 5.46868 16.5494 5.1542 16.3036 4.96458C16.141 4.83979 15.9553 4.74828 15.7573 4.69526C15.5593 4.64224 15.3527 4.62875 15.1495 4.65556C14.9622 4.68053 14.7726 4.75701 14.5096 4.89591C14.3221 4.99846 14.1116 5.05168 13.8978 5.05059C13.6841 5.0495 13.4741 4.99412 13.2876 4.88967C13.1038 4.78034 12.9508 4.6261 12.843 4.44142C12.7351 4.25673 12.676 4.04767 12.6712 3.83387C12.6602 3.53734 12.6321 3.33445 12.5596 3.16043C12.4811 2.97095 12.3661 2.79879 12.2211 2.65378C12.0761 2.50877 11.9039 2.39376 11.7145 2.31533Z" stroke="white" stroke-width="1.5" stroke-linecap="round" stroke-linejoin="round"/>
</svg>
