<svg width="24" height="24" viewBox="0 0 24 24" fill="none" xmlns="http://www.w3.org/2000/svg">
<g clip-path="url(#clip0_36_252)">
<mask id="mask0_36_252" style="mask-type:luminance" maskUnits="userSpaceOnUse" x="0" y="0" width="24" height="24">
<path d="M24 0H0V24H24V0Z" fill="white"/>
</mask>
<g mask="url(#mask0_36_252)">
<path fill-rule="evenodd" clip-rule="evenodd" d="M0 12C0 8.8174 1.26428 5.76516 3.51472 3.51472C5.76516 1.26428 8.8174 0 12 0C15.1826 0 18.2348 1.26428 20.4853 3.51472C22.7357 5.76516 24 8.8174 24 12C24 15.1826 22.7357 18.2348 20.4853 20.4853C18.2348 22.7357 15.1826 24 12 24C8.8174 24 5.76516 22.7357 3.51472 20.4853C1.26428 18.2348 0 15.1826 0 12ZM11.3152 17.136L18.224 8.4992L16.976 7.5008L11.0848 14.8624L6.912 11.3856L5.888 12.6144L11.3152 17.1376V17.136Z" fill="#2F9F93"/>
</g>
</g>
<defs>
<clipPath id="clip0_36_252">
<rect width="24" height="24" fill="white"/>
</clipPath>
</defs>
</svg>
